<?xml version="1.0" encoding="utf-8" ?>
<svg xmlns="http://www.w3.org/2000/svg" xmlns:xlink="http://www.w3.org/1999/xlink" width="512" height="512">
	<path transform="scale(0.666667 0.666667)" d="M-0 -0L768 0L768 768L-0 768L0 -0Z"/>
	<path fill="white" transform="scale(0.666667 0.666667)" d="M379.51 20.7804C392.822 19.3231 409.645 23.9635 421.739 29.2704C429.155 32.5249 436.151 36.8178 443.16 40.8556L471.041 56.7113L581.311 118.397L666.154 165.218L692.332 179.541C700.187 183.866 708.224 188.122 715.263 193.72C728.036 203.878 734.872 216.069 739.4 231.529C740.673 235.875 742.007 240.317 742.477 244.832C743.138 251.184 742.829 257.865 742.858 264.253L742.996 297.099L743.001 408.425L742.992 481.154L743.014 503.061C743.015 508.993 743.145 514.937 742.349 520.828C740.294 536.03 735.492 550.993 725.661 562.981C721.427 568.143 716.36 572.466 710.624 575.877C704.937 579.258 698.89 582.022 693 585.028L672.347 595.971L569.375 651.145L470.404 705.441C455.54 713.591 440.95 723.03 425.539 730.043C414.55 735.042 402.537 737.675 390.562 738.881L390.084 738.945C375.961 740.424 360.214 737.434 347.063 732.183C338.883 728.916 331.219 724.278 323.487 720.091L284.031 698.812L117.016 609.248L77.3365 588.012C68.4177 583.218 58.4673 578.671 50.705 572.152C36.1028 559.887 27.8589 540.341 26.3832 521.546C25.8834 515.181 26.2073 508.579 26.2132 502.192L26.2228 468.217L26.2622 359.601L26.2939 279.882L26.2792 256.668C26.2718 251.018 26.0459 245.253 26.7937 239.64C28.5534 226.435 33.9699 211.564 42.6769 201.35C47.7605 195.386 53.3149 191.209 59.9308 187.1L76.125 178.073L109.791 159.668L198.084 110.206L293.594 56.2938L323.25 40.1161C329.433 36.6915 335.482 32.8657 341.914 29.9239C353.292 24.7196 367.078 21.7761 379.51 20.7804Z"/>
	<path transform="scale(0.666667 0.666667)" d="M382.257 41.4059C392.521 41.0099 403.106 44.2096 412.316 48.5084C418.296 51.2998 423.987 54.7438 429.732 57.9857L461.243 75.9495L559.572 130.969L652.125 181.987L679.466 196.852C687.159 201.034 695.227 205.213 702.198 210.531C711.679 217.766 718.236 228.599 719.676 240.534C720.174 244.667 719.861 249.061 719.82 253.226L719.681 273.89L719.636 349.666L719.795 474.399L719.764 507.605C719.769 513.918 720.176 520.551 719.469 526.816C718.619 534.358 715.609 542.037 710.854 547.958C707.327 552.351 702.862 555.79 698.017 558.618L680.91 567.741L644.863 586.774L525.09 650.93L454.582 690.071C441.895 697.218 429.279 704.981 416.117 711.23C406.877 715.617 398.078 717.712 387.963 718.845C377.957 719.327 367.243 717.393 358.013 713.484C350.015 710.098 342.488 705.731 334.882 701.568L303.241 684.372L189.628 623.652L101.291 576.562L80.8902 565.701C76.3001 563.278 71.5151 560.937 67.1816 558.073C58.3758 552.251 51.6286 542.94 49.551 532.48C48.14 525.375 48.6905 517.775 48.686 510.544L48.6785 479.304L48.7944 357.988L48.735 278.527L48.6945 253.966C48.6906 249.512 48.4012 244.794 48.8956 240.379C49.8866 231.53 52.705 222.323 58.6039 215.438C62.9725 210.338 68.6506 206.673 74.3401 203.218L119.159 178.793L218.925 122.888L301.99 76.2922L335.767 57.6558C341.277 54.6645 346.726 51.3582 352.411 48.7177C361.767 44.3726 372.002 42.1315 382.257 41.4059Z"/>
	<path fill="#306776" transform="scale(0.666667 0.666667)" d="M236.262 462.166C237.123 461.985 237.999 461.692 238.875 461.812C238.269 462.439 237.744 462.956 237.299 463.716L232.587 466.972C231.398 467.846 230.661 468.8 229.149 469.072L228.667 468.742L228.526 467.378C229.793 465.065 233.991 463.377 236.262 462.166Z"/>
	<path fill="#306776" transform="scale(0.666667 0.666667)" d="M426.76 454.663L433.899 450.273C435.352 449.394 436.464 448.331 438.188 448.51L438.877 449.062C438.281 450.757 432.716 453.578 431.062 454.417L429.393 455.113L426.938 455.441L426.76 454.663Z"/>
	<path fill="#306776" transform="scale(0.666667 0.666667)" d="M567.362 416.057L567.748 416.018C569.489 415.816 570.167 415.048 571.689 414.469C570.819 415.197 569.945 415.742 568.935 416.255L568.108 417.633C564.443 420.107 559.92 423.562 555.775 425.039L554.443 424.442C556.333 421.233 563.929 417.57 567.362 416.057Z"/>
	<path fill="#336774" transform="scale(0.666667 0.666667)" d="M240 438.97C245.971 442.013 252.635 445.589 257.943 449.675L256.773 450.313C254.18 449.576 251.542 447.672 249.216 446.3L238.754 440.207C239.661 439.811 239.634 439.883 240 438.97Z"/>
	<path fill="#306776" transform="scale(0.666667 0.666667)" d="M542.754 398.003L543.204 397.981C543.731 397.943 544.17 397.847 544.676 397.709L545.293 398.738L534.989 404.852C532.584 406.304 530.187 407.931 527.566 408.961L526.018 408.047C530.876 403.9 537.136 401.009 542.754 398.003Z"/>
	<path fill="#366C7F" transform="scale(0.666667 0.666667)" d="M266.196 445.228L269.437 444.566C268.596 445.256 267.93 445.737 266.998 446.248L265.751 447.535L237.299 463.716C237.744 462.956 238.269 462.439 238.875 461.812C237.999 461.692 237.123 461.985 236.262 462.166C238.68 460.394 241.532 458.985 244.125 457.467L256.773 450.313L257.943 449.675C259.788 447.917 263.849 446.345 266.196 445.228Z"/>
	<path fill="#366C7F" transform="scale(0.666667 0.666667)" d="M383.196 479.292C385.772 478.59 388.829 476.284 391.206 474.964L413.957 461.9C418.126 459.461 422.362 456.656 426.76 454.663L426.938 455.441L429.393 455.113C423.309 459.133 416.618 462.402 410.34 466.134L394.689 475.432C391.812 477.122 388.959 479.012 385.899 480.346C385.31 480.797 385.032 481.138 384.674 481.787L384.227 482.012L383.463 481.729C384.108 481.149 384.12 481.035 384.341 480.188L383.196 479.292Z"/>
	<path fill="#306776" transform="scale(0.666667 0.666667)" d="M384.227 482.012L384.674 481.787C385.032 481.138 385.31 480.797 385.899 480.346C389.481 483.551 395.367 485.987 399.607 488.323L427.241 503.671C431.207 505.829 451.56 515.969 452.61 519.321L451.758 519.762C449.129 518.684 446.688 516.976 444.251 515.513L434.071 509.673L398.538 490.061C393.892 487.483 388.389 485.283 384.227 482.012Z"/>
	<path fill="#366C7F" transform="scale(0.666667 0.666667)" d="M341.835 87.5625C343.15 87.4231 343.086 87.3963 344.146 88.1844C344.056 88.4203 344.027 88.6906 343.875 88.8922C343.637 89.2066 342.406 89.7002 341.968 89.9373L335.726 93.2005L311.885 106.149C300.581 112.389 288.772 118.612 278.062 125.796C277.35 126.018 277.255 125.984 276.562 125.816L275.915 124.688C276.021 124.451 276.045 124.157 276.233 123.979C276.974 123.275 278.739 122.575 279.659 122.062L288.183 117.315L325.399 96.5304C330.734 93.5884 336.18 89.8189 341.835 87.5625Z"/>
	<path fill="#366C7F" transform="scale(0.666667 0.666667)" d="M567.362 416.057C572.058 412.86 577.176 410.173 582.126 407.389L603.002 395.575L630.784 379.749C635.282 377.2 639.817 374.23 644.483 372.039C645.32 371.647 645.578 371.587 646.466 371.692L646.949 372.375C646.529 373.095 646.523 373.279 645.776 373.719L611.192 392.959L582.952 409.131C578.101 411.92 573.164 415.304 568.108 417.633L568.935 416.255C569.945 415.742 570.819 415.197 571.689 414.469C570.167 415.048 569.489 415.816 567.748 416.018L567.362 416.057Z"/>
	<path fill="#306776" transform="scale(0.666667 0.666667)" d="M412.395 89.4375L412.907 89.2776C413.854 89.0759 414.526 89.3064 415.345 89.7248L424.709 94.9298L472.53 121.045L485.523 128.006C488.411 129.464 491.442 130.727 494.202 132.418L494.359 133.125L493.688 134.098L492.562 134.448L444.956 108.285L425.955 98.1898C421.848 96.05 415.348 93.6638 412.238 90.3339L412.395 89.4375Z"/>
	<path fill="#366C7F" transform="scale(0.666667 0.666667)" d="M542.754 398.003C550.318 393.187 558.597 389.031 566.413 384.591L606.261 361.64L629.888 348.076C634.411 345.465 639.449 342.032 644.338 340.268L645.188 340.465L645.562 341.129C644.122 343.217 639.576 345.029 637.268 346.291L622.125 354.78L580.125 378.796L553.966 393.916C551.268 395.433 548.159 397.702 545.293 398.738L544.676 397.709C544.17 397.847 543.731 397.943 543.204 397.981L542.754 398.003Z"/>
	<path fill="#306776" transform="scale(0.666667 0.666667)" d="M659.32 538.312C660.023 538.33 660.149 538.627 660.675 539.062L660.678 540.188C658.776 541.714 656.231 542.759 654.063 543.89L643.41 549.662L602.453 571.988L566.028 592.042C560.043 595.294 553.934 598.909 547.688 601.58C547.103 601.536 546.83 601.402 546.309 601.158L546.134 600.403C547.526 598.656 551.703 597.27 553.778 596.203L568.053 588.628L608.508 566.456L659.32 538.312Z"/>
	<path fill="#306776" transform="scale(0.666667 0.666667)" d="M106.279 539.812L107.065 539.699C111.178 541.669 115.118 544.162 119.104 546.384L142.229 559.048L187.066 582.796L207.045 593.275C209.577 594.596 215.811 596.915 217.176 599.242L216.562 600.039C215.836 600.087 215.319 600.005 214.654 599.735C209.049 597.46 203.513 593.959 198.137 591.115L161.798 571.7L117.827 548.214L108.896 543.465C108.014 542.981 106.428 542.345 105.711 541.688C105.511 541.503 105.496 541.188 105.388 540.938L106.279 539.812Z"/>
	<path fill="#306776" transform="scale(0.666667 0.666667)" d="M238.754 440.207C233.101 437.498 227.582 433.904 222.189 430.68L194.018 413.624L141.756 383.344C138.45 381.465 118.998 371.332 118.177 369.188L119.062 368.305C119.562 368.308 120.075 368.203 120.562 368.314C121.283 368.478 123.018 369.902 123.74 370.353L132.295 375.411L240 438.97C239.634 439.883 239.661 439.811 238.754 440.207Z"/>
	<path fill="#306776" transform="scale(0.666667 0.666667)" d="M530.809 152.812L531.145 152.694C531.161 152.691 532.269 152.607 532.312 152.618C534.122 153.083 536.701 155.003 538.382 155.96L549.008 161.675L630.375 205.145C641.289 211.24 652.67 216.904 663.188 223.649L662.969 224.812L662.062 225.37C659.624 224.283 657.312 222.657 654.982 221.338L640.499 213.268L590.787 185.83L549.701 164.345L537.419 157.954C535.168 156.777 532.634 155.728 530.735 154.027L530.809 152.812Z"/>
	<path fill="#366C7F" transform="scale(0.666667 0.666667)" d="M263.489 132.938C264.472 132.79 264.583 132.634 265.393 133.18C264.906 134.199 263.897 134.637 262.93 135.188L229.912 153.108L150.073 198.86L90.932 233.062C90.4227 233.145 89.9515 233.115 89.4375 233.1L88.8 232.125C89.0284 231.77 89.0677 231.663 89.4375 231.354C91.453 229.668 95.0051 228.281 97.3598 226.947L116.651 215.728L214.136 159.632L246.375 141.782C251.875 138.781 257.609 135.078 263.489 132.938Z"/>
	<path fill="#306776" transform="scale(0.666667 0.666667)" d="M266.196 445.228L292.129 430.734L227.239 397.497L175.719 370.609L149.431 356.887L135.148 349.449C132.88 348.241 130.322 347.21 128.341 345.562L128.438 344.778C130.261 344.296 131.274 344.868 132.858 345.645L160.497 360.508L222.858 392.851L279.021 421.353L294.754 429.78L382.594 479.079L381.281 480.607C377.751 479.122 374.44 476.948 371.09 475.088L350.804 463.841L294.104 432.04L265.751 447.535L266.998 446.248C267.93 445.737 268.596 445.256 269.437 444.566L266.196 445.228Z"/>
	<path transform="scale(0.666667 0.666667)" d="M265.751 447.535L294.104 432.04L350.804 463.841L371.09 475.088C374.44 476.948 377.751 479.122 381.281 480.607L382.594 479.079L383.196 479.292L384.341 480.188C384.12 481.035 384.108 481.149 383.463 481.729L374.03 487.129C373.11 487.63 371.744 488.603 370.754 488.839L366.752 491.129C363.774 493.173 360.516 494.794 357.371 496.567L336.644 508.05L329.016 512.399C328.502 512.695 327.31 513.587 326.752 513.66C324.052 515.399 321.052 517.795 318.003 518.775L317.061 518.388L229.149 469.072C230.661 468.8 231.398 467.846 232.587 466.972L237.299 463.716L265.751 447.535Z"/>
	<path fill="#306776" transform="scale(0.666667 0.666667)" d="M364.815 490.13L369.241 487.621C369.516 488.524 369.244 488.221 369.938 488.625L370.378 488.497L370.754 488.839L366.752 491.129L364.219 491.439L364.815 490.13Z"/>
	<path fill="#306776" transform="scale(0.666667 0.666667)" d="M317.061 518.388L317.264 518.13L317.619 517.715C319.653 515.314 322.692 513.789 325.421 512.322C326.233 512.802 326.405 512.802 326.752 513.66C324.052 515.399 321.052 517.795 318.003 518.775L317.061 518.388Z"/>
	<path fill="#336774" transform="scale(0.666667 0.666667)" d="M382.594 479.079L383.196 479.292L384.341 480.188C384.12 481.035 384.108 481.149 383.463 481.729L374.03 487.129C373.11 487.63 371.744 488.603 370.754 488.839L370.378 488.497L369.938 488.625C369.244 488.221 369.516 488.524 369.241 487.621L381.281 480.607L382.594 479.079Z"/>
	<path fill="#366C7F" transform="scale(0.666667 0.666667)" d="M364.815 490.13L364.219 491.439L366.752 491.129C363.774 493.173 360.516 494.794 357.371 496.567L336.644 508.05L329.016 512.399C328.502 512.695 327.31 513.587 326.752 513.66C326.405 512.802 326.233 512.802 325.421 512.322C325.809 511.573 330.644 509.277 331.604 508.732L364.815 490.13Z"/>
	<path fill="#006FEE" transform="scale(0.666667 0.666667)" d="M383.401 118.235C384.693 118.282 385.72 118.499 386.907 119.02C390.265 120.491 393.497 122.53 396.726 124.282L415.466 134.513L440.218 147.918L455.926 156.501L491.744 176.254L556.816 211.726L578.545 223.997C581.122 225.374 583.824 224.953 586.274 226.263C592.116 229.386 597.567 233.775 603.281 237.223L633.876 254.86L645.193 261.317C647.55 262.696 650.512 264.378 652.098 266.66L652.318 292.281L652.464 300.794C652.476 301.628 652.627 303.186 652.328 303.955C652.18 304.335 651.774 304.554 651.488 304.846C650.347 306.014 649.078 306.977 647.669 307.802L632.625 315.746L599.203 333.937L580.579 344.433C578.119 345.712 575.381 347.382 572.646 347.879L568.828 346.006L555.114 338.867C550.07 336.241 543.785 333.792 539.492 330.109C538.57 329.318 536.246 327.16 535.967 326.002C535.795 325.291 535.994 323.878 536.01 323.111C536.076 319.934 536.497 316.642 536.209 313.481L536.174 313.151L480.973 342.745L458.805 354.429C454.605 356.636 450.003 358.647 446.118 361.369C452.952 365.969 525.961 407.951 526.018 408.047L527.566 408.961L554.443 424.442L555.775 425.039C559.587 426.757 563.064 429.186 566.634 431.349L583.249 440.914C585.352 442.052 587.543 443.526 589.766 444.351L626.245 424.446L638.919 417.353C641.684 415.817 644.641 414.012 647.596 412.908C648.68 412.502 650.052 412.318 651.188 412.618C651.812 412.783 652.765 413.206 653.083 413.801C654.056 415.618 652.827 420.351 652.771 422.468L652.679 439.569L652.77 473.57L652.802 488.429C652.788 492.029 653.069 496.021 651.678 499.421C649.441 504.891 641.981 509.425 637.088 512.398C631.572 515.75 625.656 518.593 619.938 521.587L597.867 533.499L473.86 600.06L412.04 633.518L399.188 640.94C395.001 643.538 390.56 647.062 385.967 648.845C384.447 649.435 384.316 649.367 382.832 648.873C373.608 644.662 364.983 638.688 356.192 633.618L301.764 602.764L254.709 577.449L193.262 542.931L148.506 519.665L132.404 511.514C128.745 509.6 124.778 507.56 121.727 504.738C119.547 502.721 117.866 499.806 117.346 496.875C116.801 493.799 117.021 490.475 117.016 487.356L117.007 472.464L116.712 418.498C115.955 417.037 115.395 416.136 115.648 414.468C116.567 412.721 117.977 411.288 119.936 410.762C121.208 410.42 122.263 410.912 123.422 411.408C132.083 415.123 140.419 420.471 148.717 424.977L207.019 457.257L221.586 465.322C223.76 466.473 226.306 468.064 228.667 468.742L229.149 469.072L317.061 518.388L318.003 518.775C321.052 517.795 324.052 515.399 326.752 513.66C327.31 513.587 328.502 512.695 329.016 512.399L336.644 508.05L357.371 496.567C360.516 494.794 363.774 493.173 366.752 491.129L370.754 488.839C371.744 488.603 373.11 487.63 374.03 487.129L383.463 481.729L384.227 482.012C388.389 485.283 393.892 487.483 398.538 490.061L434.071 509.673L444.251 515.513C446.688 516.976 449.129 518.684 451.758 519.762L452.61 519.321L516.482 484.756L516.119 484.589C509.439 482.023 502.959 478.786 496.461 475.778L455.087 456.12L440.484 448.805C437.851 447.322 435.434 445.534 432.764 444.088L404.948 429.263C398.189 425.571 390.848 422.602 384.382 418.431C382.9 417.475 380.818 416.064 380.307 414.257C379.9 412.815 380.035 410.743 380.048 409.246C380.086 404.566 380.159 400.479 382.479 396.279C377.543 394.845 372.451 390.829 367.978 388.191L346.688 375.717L279.077 337.312L251.625 322.563C245.296 319.309 239.197 316.109 232.513 313.611C231.627 316.775 233.415 320.721 231.778 323.617C229.508 326.951 224.722 329.245 221.272 331.272L206.398 339.894L195.902 345.855C194.52 346.584 192.763 347.68 191.238 347.991L190.862 348.036L190.533 348C188.446 347.572 185.781 345.511 183.898 344.378L170.911 336.651L139.538 318.636C134.28 315.683 128.623 313.046 123.562 309.791C121.44 308.425 120.046 306.922 118.619 304.878C118.099 301.115 118.398 297 118.403 293.191L118.45 272.769L118.48 263.438C118.48 261.977 118.27 260.108 118.748 258.722C119.559 256.374 122.697 254.757 124.746 253.644L310.449 155.051C312.809 153.35 315.821 152.052 318.394 150.66L341.1 139.034L362.048 128.28C369.039 124.616 375.951 120.881 383.401 118.235Z"/>
	<path fill="#0033A2" transform="scale(0.666667 0.666667)" d="M207.614 300.057L208.427 299.741C214.369 304.037 220.83 307.502 227.248 311.042C228.878 311.941 231.033 312.559 232.513 313.611C231.627 316.775 233.415 320.721 231.778 323.617C230.053 321.512 227.506 319.543 225.558 317.579L207.614 300.057Z"/>
	<path transform="scale(0.666667 0.666667)" d="M383.463 481.729L384.227 482.012C388.389 485.283 393.892 487.483 398.538 490.061L434.071 509.673L444.251 515.513C446.688 516.976 449.129 518.684 451.758 519.762C448.808 520.895 445.969 522.836 443.251 524.438L431.288 531.128L383.164 556.175C381.294 555.43 379.52 554.12 377.759 553.134L363.938 545.242L318.003 518.775C321.052 517.795 324.052 515.399 326.752 513.66C327.31 513.587 328.502 512.695 329.016 512.399L336.644 508.05L357.371 496.567C360.516 494.794 363.774 493.173 366.752 491.129L370.754 488.839C371.744 488.603 373.11 487.63 374.03 487.129L383.463 481.729Z"/>
	<path transform="scale(0.666667 0.666667)" d="M448.964 223.149L449.67 222.944C451.338 222.554 453.839 223.889 455.39 224.583C470.16 231.187 484.342 239.582 498.562 247.3L514.22 256.14C515.506 256.912 517.642 257.863 518.687 258.909L519.049 259.356C513.855 263.69 506.515 266.689 500.508 269.882L470.652 285.887L422.857 311.401L405.033 320.796C401.396 322.686 397.549 324.978 393.602 326.114C381.671 320.974 370.516 313.681 359.205 307.33L301.137 274.788L277.107 261.368C273.28 259.199 268.105 257.007 265.087 253.875C264.799 252.983 264.666 252.713 265.147 251.812C266.279 249.692 270.084 248.187 272.152 247.118L285.779 240.16C296.982 234.425 307.943 228.23 319.48 223.163L336.671 232.35L364.864 248.436C370.434 251.454 376.057 255.104 381.867 257.591C382.804 257.992 383.298 258.081 384.279 257.875C389.469 256.009 394.441 252.688 399.296 250.064L432.453 231.924L442.413 226.683C444.411 225.692 447.363 224.658 448.964 223.149Z"/>
</svg>
